<svg width="35" height="35" viewBox="0 0 35 35" fill="none" xmlns="http://www.w3.org/2000/svg">
<path d="M7.0831 27.8875L0.709525 24.4355L2.14072 23.0077L7.79262 23.8561L17.8766 13.7959L0 4.14773L1.81269 2.29083L23.8031 7.8567L30.9542 0.703006C31.424 0.234335 31.9813 0 32.626 0C33.2707 0 33.8272 0.234335 34.2953 0.703006C34.7635 1.17168 34.9984 1.7357 35 2.39507C35.0016 3.05444 34.7667 3.61765 34.2953 4.08471L27.2001 11.2529L32.7353 33.1455L30.9227 35L21.2031 17.1655L11.2115 27.1312L12.0133 32.8183L10.5384 34.2921L7.0831 27.8875Z" fill="#2095AE"/>
</svg>
